<svg xmlns="http://www.w3.org/2000/svg" viewBox="0 0 35 59.99"><title>Asset 2</title><g id="Layer_2" data-name="Layer 2"><g id="Layer_1-2" data-name="Layer 1"><path id="soy" d="M35,58.83l-2-9.58a2.51,2.51,0,0,1,.25-1.66c3.72-6.39.74-12.47-.37-14.38a5.14,5.14,0,0,1-.56-1.47v-.07a3.55,3.55,0,0,1,.43-2.51c2.79-4.49,1.12-9.28.19-11.18a4.36,4.36,0,0,1-.44-2V15.7a5.76,5.76,0,0,1,.5-2.27c2.54-5.22.25-10.93-.74-13A.85.85,0,0,0,31.06.09l0,0c-9,4.54-6.32,12.16-5.08,14.74a2.55,2.55,0,0,1,.13,1.9v.06a2.19,2.19,0,0,1-.31.61c-3.78,4.73-.81,10.94.37,13a4,4,0,0,1,.49,1.66h0a3.43,3.43,0,0,1-.37,1.78c-3.47,7.19,3.1,15.36,3.1,15.36a25.15,25.15,0,0,1,3,7L27.8,51.82a2,2,0,0,1-.62-1.35,12.74,12.74,0,0,0-7.49-10.56,3.88,3.88,0,0,1-1.12-.8h0A3.12,3.12,0,0,1,17.64,37c-.12-4.73-3.84-7.49-5.45-8.48a4.13,4.13,0,0,1-1.3-1.23l-.31-.3a5,5,0,0,1-.74-2c-.68-5-5-8-6.88-9.21a1.06,1.06,0,0,0-1.46.38s0,0,0,.05c-4.15,7.67,1.54,12,3.71,13.33a2.48,2.48,0,0,1,1,1.35v.06a1.82,1.82,0,0,1,.07.61c-.44,5.41,4.89,8.6,6.81,9.59a3.19,3.19,0,0,1,1.18,1,3.47,3.47,0,0,1,.62,1.48c1,7.06,10,10,10,10a21.87,21.87,0,0,1,5.7,3.74c.93.86,1.86,1.66,2.79,2.46h0a.83.83,0,0,0,1.05,0l.13-.06a.68.68,0,0,0,.24-.61A.32.32,0,0,0,35,58.83Z"/></g></g></svg>