<svg xmlns="http://www.w3.org/2000/svg" viewBox="0 0 60.01 51.01"><defs><style>.cls-1{stroke:#000;stroke-width:0.01px;}</style></defs><title>Asset 1</title><g id="Layer_2" data-name="Layer 2"><g id="Layer_1-2" data-name="Layer 1"><path id="cow" class="cls-1" d="M16.39,0c-1.71,0-3.4.27-5.11.14-.95,0-2.12-.07-2.75.77A9.32,9.32,0,0,0,7,6.88a15.1,15.1,0,0,1-.5,4.28,19.78,19.78,0,0,1,2.67.25,1.49,1.49,0,0,1,1,.73,5.84,5.84,0,0,1,.69,2.06,22.6,22.6,0,0,1-.16,2.34c1.86-.94,2.39-3.25,4.2-4.23a12,12,0,0,0,3.94-3.39c.51-.59.16-1.43,0-2.07l-.87-.11V6.5c.58.06,1.28-.13,1.72.34A9.41,9.41,0,0,0,21,8.11a3.72,3.72,0,0,0,2.78.48,3.78,3.78,0,0,0,2-1.42.82.82,0,0,0-.06-1,5.27,5.27,0,0,0-1.48-1,4.84,4.84,0,0,0-3.17-.63,7,7,0,0,1-3.33.09l.49-.43A13.15,13.15,0,0,0,17.18.72C17,.42,16.79,0,16.39,0Zm36,3.78c-.58,0-1.16.07-1.71.11-3.28.19-6.48.95-9.72,1.44-1.46.2-2.92.24-4.38.38-3.55.46-7.11-.27-10.66-.35.17.46.56.88.59,1.38A3.68,3.68,0,0,1,22.39,9a4.93,4.93,0,0,1-3-1.86,3,3,0,0,1-.26,2,11.27,11.27,0,0,1-3,2.81,7.83,7.83,0,0,0-2.35,1.85,29.14,29.14,0,0,1-2.14,2.7c.4.78.83,1.55,1.26,2.32a82.8,82.8,0,0,1,4.54,9.21,6.17,6.17,0,0,1,.51,1.44c.1,1.08.1,2.18.24,3.27a33.18,33.18,0,0,1,.62,5.17,21.74,21.74,0,0,1-1.12,6.19,19.76,19.76,0,0,1-2.5,5,7.55,7.55,0,0,0,4.7-.17c0-1.14-.06-2.28.06-3.42.09-.47.66-.53,1-.7a11.82,11.82,0,0,1-.23-2.52,40.27,40.27,0,0,1,.88-6.64,11.09,11.09,0,0,0-.05-3.59,8,8,0,0,0,5.28-.74c.53.81,1,1.62,1.55,2.44a21.61,21.61,0,0,1,3.39,6.87,9.54,9.54,0,0,1,.13,2.56,8.74,8.74,0,0,1-.73,3.7c-.28.5-.33,1.08-.57,1.59A19,19,0,0,0,29,50.66a7.21,7.21,0,0,0,5-.2,3,3,0,0,0,.68-1.11c.51-.94-.09-2-.09-3a10.78,10.78,0,0,0,1.12-.28c.37-.38.07-1,0-1.39-.93-3.48-1.95-6.92-2.68-10.45a19.22,19.22,0,0,1-.56-3A23.17,23.17,0,0,0,40.31,30c3.48-1.36,6.34-3.83,9.23-6.1.49.24.74.76,1.08,1.13a10.34,10.34,0,0,1,2.21,6.38,29.08,29.08,0,0,1-1.51,11.52,7,7,0,0,1-1.48,2l.57.28a5.27,5.27,0,0,0-1.85,2.07,5.31,5.31,0,0,0,4.62-.07,4,4,0,0,1,.23-3,14.5,14.5,0,0,1,1.08-1.49A7.51,7.51,0,0,0,54.21,41a7.6,7.6,0,0,1,.12-2.69,26.44,26.44,0,0,1,1-4.32,19.53,19.53,0,0,0,1.28-3c0-1.06-.86-1.93-.75-3,.17-3.48,1.47-6.76,1.83-10.2A39.53,39.53,0,0,0,57,8.67c-.38-1.63-.88-3.54-2.5-4.38a3.83,3.83,0,0,0-2.11-.5ZM4.5,4.2a2.94,2.94,0,0,0-.51,0A5.87,5.87,0,0,0,1.46,5.48,3.15,3.15,0,0,0,0,7.58a8.16,8.16,0,0,0,5.9.62.74.74,0,0,0,.58-.37,18.73,18.73,0,0,0,.13-3.08A7.36,7.36,0,0,0,4.5,4.2ZM56.68,6.12a9,9,0,0,0,.72,2.36,20.69,20.69,0,0,1,1.41,6.63,36.78,36.78,0,0,1-.47,7.34,19.8,19.8,0,0,1-.51,3.25,11.83,11.83,0,0,0-.48,1.67,3.93,3.93,0,0,0,1.21,3.5c.67-.42,1.45-1,1.44-1.86.09-1.53-1.47-2.59-1.2-4.13A40.31,40.31,0,0,0,59.37,20,46,46,0,0,0,59,11.3,9.6,9.6,0,0,0,56.68,6.12ZM6.87,11.52a1.46,1.46,0,0,0-1.08.33,5.06,5.06,0,0,0-.89,3.93c1,.45,1.88,1.32,3.07,1.27.65-.07,1.53.07,2-.47a3.56,3.56,0,0,0,.41-2.39,3.75,3.75,0,0,0-.55-1.78,3.73,3.73,0,0,0-2.6-.89ZM49.66,24.41a6.71,6.71,0,0,0-1.88,1.72,11.39,11.39,0,0,1,1.75,2,15.08,15.08,0,0,1,1.59,2.06,6.85,6.85,0,0,1,.9,3.48,21.6,21.6,0,0,1-.76,5.3,11.39,11.39,0,0,1-2,3.95,10.52,10.52,0,0,0,1.56.24,42.6,42.6,0,0,0,1.41-5.44,22.93,22.93,0,0,0,.13-6.82,11.36,11.36,0,0,0-.86-3.68A14.42,14.42,0,0,0,49.66,24.41Z"/></g></g></svg>