<svg xmlns="http://www.w3.org/2000/svg" viewBox="0 0 75 75"><title>Asset 6</title><g id="Layer_2" data-name="Layer 2"><g id="social-in"><path d="M63,0H12A12,12,0,0,0,0,12V63A12,12,0,0,0,12,75H63A12,12,0,0,0,75,63V12A12,12,0,0,0,63,0ZM22.68,64.29H11.55V28.49H22.68ZM17.11,23.6a6.45,6.45,0,1,1,6.44-6.44A6.44,6.44,0,0,1,17.11,23.6ZM64.34,64.29H53.22V46.88c0-4.16-.08-9.5-5.78-9.5s-6.68,4.52-6.68,9.19V64.29H29.65V28.49H40.31v4.89h.15A11.72,11.72,0,0,1,51,27.61c11.25,0,13.35,7.41,13.35,17.06Z"/></g></g></svg>