<svg xmlns="http://www.w3.org/2000/svg" viewBox="0 0 75 75"><title>Asset 3</title><g id="Layer_2" data-name="Layer 2"><g id="social-mail"><path d="M63,0H12A12,12,0,0,0,0,12V63A12,12,0,0,0,12,75H63A12,12,0,0,0,75,63V12A12,12,0,0,0,63,0Zm1.18,35.75q-.35,8.22-4.06,13a11.91,11.91,0,0,1-10,4.83,9.13,9.13,0,0,1-4.77-1.19,7.55,7.55,0,0,1-3-3.4A9.85,9.85,0,0,1,34,53.54a8.17,8.17,0,0,1-7.25-3.95C25,47,24.36,43.48,24.79,39.15a27.17,27.17,0,0,1,2.68-9.42,16.71,16.71,0,0,1,5.31-6.34,11.94,11.94,0,0,1,6.94-2.21,14,14,0,0,1,7.83,2.11l2,1.38L47.94,43.23a5.68,5.68,0,0,0,.56,3.88,3.11,3.11,0,0,0,2.81,1.35c2,0,3.61-1.15,4.94-3.45a19.19,19.19,0,0,0,2.18-9q.55-11.2-4.51-17.23t-15-6A19.86,19.86,0,0,0,27.9,15.88a21.56,21.56,0,0,0-7.64,8.94,33.91,33.91,0,0,0-3.14,13.27q-.51,11.37,4.56,17.58t15.18,6.21a28.51,28.51,0,0,0,5.59-.59,23,23,0,0,0,5-1.59l1.22,4.94a16.6,16.6,0,0,1-5.28,2.07,28.73,28.73,0,0,1-6.7.79,28.6,28.6,0,0,1-14.44-3.42A21,21,0,0,1,13.38,54a35.42,35.42,0,0,1-2.55-15.91,37.44,37.44,0,0,1,4-15.89A26.46,26.46,0,0,1,39.08,7.5,26.64,26.64,0,0,1,52.94,11a21.28,21.28,0,0,1,8.7,9.87A32.59,32.59,0,0,1,64.18,35.75Z"/><path d="M34.57,30c-1.36,2.1-2.25,5.16-2.65,9.18a12.48,12.48,0,0,0,.74,6.44,3.66,3.66,0,0,0,3.53,2.2,4.25,4.25,0,0,0,3-1.38,10.41,10.41,0,0,0,2.35-4l1.34-15.19a8.26,8.26,0,0,0-2.56-.41A6.43,6.43,0,0,0,34.57,30Z"/></g></g></svg>