<svg xmlns="http://www.w3.org/2000/svg" viewBox="0 0 75 75"><title>Asset 4</title><g id="Layer_2" data-name="Layer 2"><g id="social-ig"><path d="M63,0H12A12,12,0,0,0,0,12V63A12,12,0,0,0,12,75H63A12,12,0,0,0,75,63V12A12,12,0,0,0,63,0Zm4.29,49.87c-.24,4.81-1.34,9.06-4.85,12.57s-7.76,4.62-12.57,4.85-19.79.28-24.74,0-9-1.34-12.57-4.85S7.94,54.68,7.71,49.87s-.28-19.8,0-24.75S9,16.05,12.56,12.54s7.77-4.6,12.57-4.83,19.79-.28,24.74,0,9.07,1.34,12.57,4.85,4.62,7.76,4.85,12.57S67.57,44.92,67.29,49.87Z"/><path d="M60.89,19.81a10.14,10.14,0,0,0-5.7-5.7c-3.94-1.55-13.32-1.2-17.68-1.2s-13.74-.37-17.69,1.2a10.17,10.17,0,0,0-5.7,5.7c-1.55,3.94-1.2,13.33-1.2,17.69s-.36,13.74,1.2,17.69a10.14,10.14,0,0,0,5.7,5.7c3.94,1.55,13.32,1.2,17.69,1.2s13.73.37,17.68-1.2a10.11,10.11,0,0,0,5.7-5.7c1.57-3.94,1.21-13.33,1.21-17.69S62.46,23.76,60.89,19.81ZM37.51,52.88A15.38,15.38,0,1,1,52.89,37.5,15.35,15.35,0,0,1,37.51,52.88Zm16-27.8a3.59,3.59,0,1,1,3.58-3.59A3.58,3.58,0,0,1,53.52,25.08Z"/><circle cx="37.51" cy="37.5" r="10" transform="translate(-0.12 74.88) rotate(-89.8)"/></g></g></svg>