<svg xmlns="http://www.w3.org/2000/svg" viewBox="0 0 112 112"><defs><style>.cls-1{fill:#fff;}</style></defs><title>Asset 1</title><g id="Layer_2" data-name="Layer 2"><g id="Layer_1-2" data-name="Layer 1"><g id="Layer_1-2-2" data-name="Layer 1-2"><g id="SSV-logo_lines" data-name="SSV-logo lines"><path id="field-circle" class="cls-1" d="M56,0a56,56,0,1,0,56,56A56,56,0,0,0,56,0Zm0,2a54,54,0,0,1,51.78,69.28H4.22A54,54,0,0,1,56,2Zm47.6,79.46a53,53,0,0,1-3.6,5.73C95.09,80.28,91.5,74.7,96,74h4.3C97.74,74.79,99.74,77.61,103.6,81.46ZM105.36,74h1.54c-.42,1.18-.88,2.35-1.38,3.49C103.76,75.59,103.43,74.29,105.36,74Zm-27.5,31.34A53,53,0,0,1,67,108.86c1.71-11.74.4-33.43,8.67-34.84h5.82C71.91,76,78,93.2,77.86,105.36ZM24.67,74.16h8.49C24.91,75,16.83,78.67,9.61,83.6c-.78-1.3-1.51-2.64-2.17-4A50.35,50.35,0,0,1,24.67,74.16ZM6.59,77.75c-.37-.83-.71-1.67-1-2.53A73.69,73.69,0,0,1,21.07,74,56.26,56.26,0,0,0,6.59,77.75ZM36,74h5.81c-10,1.23-19.65,8.35-27.27,16.47a52.68,52.68,0,0,1-3.26-4.33C18.62,80,27.23,75,36,74Zm9.3,0h6.51C41,75.7,30.48,88.27,24,99.46A53.55,53.55,0,0,1,18.71,95c6.81-9.86,16.37-19.61,26.54-21Zm10.23,0h6.4c-9.65,2.07-19.56,20.8-23.57,33a53.85,53.85,0,0,1-7.48-3.25c5-11.93,14.59-28.06,24.6-29.75Zm-8.32,35.24C49.81,97.62,58.35,75.45,66.06,74h5.12c-10.36,2.25-11.89,24.14-14.72,36H56a53.45,53.45,0,0,1-8.84-.74ZM87,100.17c-2.32-11.47-7.7-25-.36-26.15h4.19c-5.89,1.37-.49,10,4.23,19.21A53.87,53.87,0,0,1,87,100.17Z"/><g id="SSV"><path id="S" class="cls-1" d="M5.94,59.31H7.42Q10.6,69.93,18.21,69.93a7.21,7.21,0,0,0,5.08-1.74,6.26,6.26,0,0,0,1.89-4.87,6.57,6.57,0,0,0-1.66-4.57,13.59,13.59,0,0,0-5.07-3.27L17.15,55a25.72,25.72,0,0,1-7.87-4.67A9.39,9.39,0,0,1,6.47,43a11,11,0,0,1,1.45-5.64,10,10,0,0,1,4.22-4A14.3,14.3,0,0,1,18.8,32a15.33,15.33,0,0,1,3.31.3,21.34,21.34,0,0,1,2.83.83,5.22,5.22,0,0,0,1.77.47.86.86,0,0,0,.65-.24,2.09,2.09,0,0,0,.41-.88H29l.59,10.68H28.13a12.92,12.92,0,0,0-3.07-6.55,7.31,7.31,0,0,0-5.49-2.25A6.78,6.78,0,0,0,14.79,36,5.59,5.59,0,0,0,13,40.37a5.51,5.51,0,0,0,1.12,3.45,9.19,9.19,0,0,0,2.72,2.36,36.72,36.72,0,0,0,4,1.92l1.71.71a20.19,20.19,0,0,1,7.05,4.54,10,10,0,0,1,2.51,7.14,11.61,11.61,0,0,1-3.33,8.44q-3.34,3.42-10.54,3.42a18.55,18.55,0,0,1-4-.35,18,18,0,0,1-3-1l-.71-.26a2.89,2.89,0,0,0-1-.21,1.7,1.7,0,0,0-1,.32,1.47,1.47,0,0,0-.56.74H6.77Z"/><path id="S-2" class="cls-1" d="M36.8,59.31h1.47q3.19,10.62,10.8,10.62a7.21,7.21,0,0,0,5.08-1.74A6.32,6.32,0,0,0,56,63.32a6.61,6.61,0,0,0-1.65-4.57,13.59,13.59,0,0,0-5.07-3.27L48,55a26.09,26.09,0,0,1-7.88-4.67A9.43,9.43,0,0,1,37.33,43a11,11,0,0,1,1.45-5.64,10.08,10.08,0,0,1,4.21-4A14.34,14.34,0,0,1,49.66,32a15.33,15.33,0,0,1,3.31.3,21.34,21.34,0,0,1,2.83.83,5.22,5.22,0,0,0,1.77.47.86.86,0,0,0,.65-.24,2.22,2.22,0,0,0,.41-.88h1.18l.59,10.68H59a12.9,12.9,0,0,0-3.06-6.55,7.31,7.31,0,0,0-5.49-2.25A6.75,6.75,0,0,0,45.65,36a5.64,5.64,0,0,0-1.83,4.33,5.45,5.45,0,0,0,1.12,3.45,9.07,9.07,0,0,0,2.72,2.36,35,35,0,0,0,4,1.92l1.71.71a20.28,20.28,0,0,1,7,4.54,10,10,0,0,1,2.51,7.14,11.66,11.66,0,0,1-3.34,8.44Q56.21,72.31,49,72.31A18.55,18.55,0,0,1,45,72a18,18,0,0,1-2.95-1l-.71-.26a2.89,2.89,0,0,0-1-.21,1.7,1.7,0,0,0-1,.32,1.47,1.47,0,0,0-.56.74H37.63Z"/><path id="V" class="cls-1" d="M70.61,37.6a7.36,7.36,0,0,0-.83-1.83,2.36,2.36,0,0,0-1.24-.86,8.15,8.15,0,0,0-2.36-.26V32.7H81.64v1.95H79c-.94,0-1.41.35-1.41,1.06a3.45,3.45,0,0,0,.17.95l9.09,27.49h.3L95.8,37.42a5.86,5.86,0,0,0,.35-1.65,1,1,0,0,0-.35-.86,2.08,2.08,0,0,0-1.12-.26H91.85V32.7h12.21v1.95a5.69,5.69,0,0,0-3.13.71,4.82,4.82,0,0,0-1.71,2.47l-12,33.81H82.11Z"/></g></g></g></g></g></svg>