<svg xmlns="http://www.w3.org/2000/svg" viewBox="0 0 112 112"><title>SSV logo</title><g id="Layer_2" data-name="Layer 2"><g id="Layer_1-2" data-name="Layer 1"><g id="SSV-logo_lines"><path id="field-circle" d="M56,0a56,56,0,1,0,56,56A56.06,56.06,0,0,0,56,0Zm0,2a54,54,0,0,1,51.78,69.28H4.22A54,54,0,0,1,56,2Zm47.6,79.46A52.67,52.67,0,0,1,100,87.19c-4.91-6.91-8.5-12.49-4-13.17h4.3C97.74,74.79,99.74,77.61,103.6,81.46ZM105.36,74h1.54c-.42,1.18-.88,2.35-1.38,3.49C103.76,75.59,103.43,74.29,105.36,74Zm-27.5,31.34A53.23,53.23,0,0,1,67,108.86c1.71-11.74.4-33.43,8.67-34.84h5.82C71.91,76,78,93.2,77.86,105.36ZM24.67,74.16h8.49C24.91,75,16.83,78.67,9.61,83.6c-.78-1.3-1.51-2.64-2.17-4A50.42,50.42,0,0,1,24.67,74.16ZM6.59,77.75c-.37-.83-.71-1.67-1-2.53A74,74,0,0,1,21.07,74,56.26,56.26,0,0,0,6.59,77.75ZM36,74h5.81c-10,1.23-19.65,8.35-27.27,16.47a52.68,52.68,0,0,1-3.26-4.33C18.62,80,27.23,75,36,74Zm9.3,0h6.51C41,75.7,30.48,88.27,24,99.46A54.61,54.61,0,0,1,18.71,95C25.52,85.14,35.08,75.39,45.25,74Zm10.23,0h6.4c-9.65,2.07-19.56,20.8-23.57,33a54.17,54.17,0,0,1-7.48-3.25C35.84,91.82,45.47,75.69,55.48,74Zm-8.32,35.24C49.81,97.62,58.35,75.45,66.06,74h5.12c-10.36,2.25-11.89,24.14-14.72,36H56A53.71,53.71,0,0,1,47.16,109.26ZM87,100.17c-2.32-11.47-7.7-25-.36-26.15h4.19c-5.89,1.37-.49,10,4.23,19.21A53.87,53.87,0,0,1,87,100.17Z"/><g id="SSV"><path id="S" d="M5.94,59.31H7.42Q10.6,69.93,18.21,69.93a7.2,7.2,0,0,0,5.08-1.74,6.28,6.28,0,0,0,1.89-4.87,6.59,6.59,0,0,0-1.66-4.57,13.63,13.63,0,0,0-5.07-3.27L17.15,55a25.71,25.71,0,0,1-7.87-4.67A9.39,9.39,0,0,1,6.47,43a11,11,0,0,1,1.45-5.64,10.09,10.09,0,0,1,4.22-4A14.3,14.3,0,0,1,18.8,32a15.64,15.64,0,0,1,3.31.3,22.13,22.13,0,0,1,2.83.83,5.05,5.05,0,0,0,1.77.47.87.87,0,0,0,.65-.24,2.06,2.06,0,0,0,.41-.88H29l.59,10.68H28.13a12.9,12.9,0,0,0-3.07-6.55,7.34,7.34,0,0,0-5.49-2.25A6.75,6.75,0,0,0,14.79,36,5.61,5.61,0,0,0,13,40.37a5.49,5.49,0,0,0,1.12,3.45,9.19,9.19,0,0,0,2.72,2.36,35.68,35.68,0,0,0,4,1.92l1.71.71a20.22,20.22,0,0,1,7.05,4.54,10,10,0,0,1,2.51,7.14,11.64,11.64,0,0,1-3.33,8.44q-3.34,3.42-10.54,3.42a18.48,18.48,0,0,1-4-.35,18.46,18.46,0,0,1-2.95-1l-.71-.26a2.68,2.68,0,0,0-1-.21,1.73,1.73,0,0,0-1,.32,1.43,1.43,0,0,0-.56.74H6.77Z"/><path id="S-2" data-name="S" d="M36.8,59.31h1.47q3.19,10.62,10.8,10.62a7.2,7.2,0,0,0,5.08-1.74A6.31,6.31,0,0,0,56,63.32a6.63,6.63,0,0,0-1.65-4.57,13.63,13.63,0,0,0-5.07-3.27L48,55a25.9,25.9,0,0,1-7.88-4.67A9.39,9.39,0,0,1,37.33,43a11,11,0,0,1,1.45-5.64,10.13,10.13,0,0,1,4.21-4A14.34,14.34,0,0,1,49.66,32a15.64,15.64,0,0,1,3.31.3,22.61,22.61,0,0,1,2.83.83,5,5,0,0,0,1.77.47.88.88,0,0,0,.65-.24,2.18,2.18,0,0,0,.41-.88h1.18l.59,10.68H59a12.89,12.89,0,0,0-3.06-6.55,7.34,7.34,0,0,0-5.49-2.25A6.75,6.75,0,0,0,45.65,36a5.61,5.61,0,0,0-1.83,4.33,5.43,5.43,0,0,0,1.12,3.45,9.07,9.07,0,0,0,2.72,2.36,34.85,34.85,0,0,0,4,1.92l1.71.71a20.22,20.22,0,0,1,7,4.54,10,10,0,0,1,2.51,7.14,11.65,11.65,0,0,1-3.34,8.44q-3.33,3.42-10.53,3.42a18.48,18.48,0,0,1-4-.35,18.14,18.14,0,0,1-2.95-1l-.71-.26a2.72,2.72,0,0,0-1-.21,1.76,1.76,0,0,0-1,.32,1.48,1.48,0,0,0-.56.74H37.63Z"/><path id="V" d="M70.61,37.6a7.65,7.65,0,0,0-.83-1.83,2.38,2.38,0,0,0-1.24-.86,8.4,8.4,0,0,0-2.36-.26V32.7H81.64v1.95H79c-.94,0-1.41.35-1.41,1.06a3.29,3.29,0,0,0,.17.95l9.09,27.49h.3L95.8,37.42a5.86,5.86,0,0,0,.35-1.65,1,1,0,0,0-.35-.86,2,2,0,0,0-1.12-.26H91.85V32.7h12.21v1.95a5.68,5.68,0,0,0-3.13.71,4.85,4.85,0,0,0-1.71,2.47l-12,33.81H82.11Z"/></g></g></g></g></svg>