<svg xmlns="http://www.w3.org/2000/svg" width="53.334" height="45.495" viewBox="0 0 53.334 45.495">
  <path id="cow" d="M16.69,9.7c-1.512.008-3.016.239-4.536.119-.844-.032-1.886-.064-2.443.692a8.313,8.313,0,0,0-1.385,5.308,13.716,13.716,0,0,1-.446,3.82,17.99,17.99,0,0,1,2.372.223,1.318,1.318,0,0,1,.867.653,5.021,5.021,0,0,1,.613,1.838,18.23,18.23,0,0,1-.143,2.085c1.655-.844,2.125-2.9,3.74-3.772a10.86,10.86,0,0,0,3.5-3.024c.454-.525.143-1.273-.008-1.846l-.772-.1c0-.056-.008-.159-.008-.215.517.056,1.138-.111,1.536.31a8.4,8.4,0,0,0,1.249,1.13,3.292,3.292,0,0,0,2.475.422A3.375,3.375,0,0,0,25.07,16.08a.744.744,0,0,0-.056-.939,4.982,4.982,0,0,0-1.321-.844,4.321,4.321,0,0,0-2.817-.565,5.986,5.986,0,0,1-2.953.08l.43-.382a11.943,11.943,0,0,0-.955-3.1c-.167-.263-.35-.637-.708-.637Zm31.951,3.368c-.511,0-1.027.059-1.518.094-2.913.175-5.762.852-8.635,1.289-1.3.175-2.594.215-3.892.334-3.16.414-6.319-.239-9.479-.31.151.414.5.788.525,1.234a3.269,3.269,0,0,1-3.613,2.006,4.383,4.383,0,0,1-2.69-1.663,2.724,2.724,0,0,1-.223,1.8,9.88,9.88,0,0,1-2.666,2.507,7.156,7.156,0,0,0-2.085,1.655,25.221,25.221,0,0,1-1.9,2.4c.358.7.74,1.385,1.122,2.069A74.877,74.877,0,0,1,17.621,34.7a6.138,6.138,0,0,1,.454,1.281c.088.963.088,1.942.207,2.913a29.014,29.014,0,0,1,.557,4.616,19.488,19.488,0,0,1-1,5.515,17.716,17.716,0,0,1-2.22,4.5,6.757,6.757,0,0,0,4.178-.151c.008-1.019-.056-2.037.048-3.056.088-.414.589-.47.915-.621a10.117,10.117,0,0,1-.207-2.244,36.118,36.118,0,0,1,.78-5.921,9.819,9.819,0,0,0-.048-3.2,7.183,7.183,0,0,0,4.7-.661c.47.716.923,1.44,1.377,2.173a19.29,19.29,0,0,1,3.008,6.128,8.7,8.7,0,0,1,.119,2.276,7.705,7.705,0,0,1-.653,3.3c-.247.446-.294.963-.5,1.425a15.435,15.435,0,0,0-1.4,1.886,6.4,6.4,0,0,0,4.4-.175,2.682,2.682,0,0,0,.6-.995c.454-.836-.08-1.767-.08-2.642.334-.072.676-.151,1-.255.326-.342.064-.852.016-1.242-.828-3.1-1.735-6.168-2.38-9.311a17.215,17.215,0,0,1-.5-2.69,20.293,20.293,0,0,0,6.964-1.106c3.088-1.21,5.627-3.414,8.2-5.436.43.215.653.676.963,1.011A9.227,9.227,0,0,1,49.081,37.7a26.048,26.048,0,0,1-1.345,10.274,6.351,6.351,0,0,1-1.313,1.767c.175.088.342.167.509.247a4.72,4.72,0,0,0-1.647,1.846,4.734,4.734,0,0,0,4.107-.056,3.636,3.636,0,0,1,.2-2.674,13.126,13.126,0,0,1,.963-1.329,7.066,7.066,0,0,0-.247-1.576,6.928,6.928,0,0,1,.1-2.4,23.628,23.628,0,0,1,.86-3.852A17.1,17.1,0,0,0,52.4,37.289c-.008-.939-.764-1.719-.661-2.682.151-3.1,1.305-6.025,1.624-9.089a35.431,35.431,0,0,0-.621-8.1c-.342-1.456-.788-3.16-2.228-3.908a3.441,3.441,0,0,0-1.872-.444Zm-42.514.366a2.038,2.038,0,0,0-.452.046,5.263,5.263,0,0,0-2.252,1.09,2.85,2.85,0,0,0-1.289,1.878A7.229,7.229,0,0,0,7.379,17a.637.637,0,0,0,.517-.334,16.656,16.656,0,0,0,.119-2.746,6.666,6.666,0,0,0-1.888-.483ZM52.5,15.141a8.168,8.168,0,0,0,.637,2.109,18.4,18.4,0,0,1,1.257,5.913,32.723,32.723,0,0,1-.422,6.542,17.7,17.7,0,0,1-.454,2.9A10.563,10.563,0,0,0,53.1,34.09a3.491,3.491,0,0,0,1.074,3.12c.589-.374,1.289-.883,1.281-1.655.072-1.361-1.313-2.308-1.074-3.685a36.467,36.467,0,0,0,.509-4.353,40.7,40.7,0,0,0-.366-7.752A8.6,8.6,0,0,0,52.5,15.141ZM8.234,19.964a1.268,1.268,0,0,0-.959.287,4.519,4.519,0,0,0-.788,3.51c.9.4,1.671,1.17,2.722,1.13.581-.064,1.361.064,1.8-.422a3.187,3.187,0,0,0,.366-2.125,3.368,3.368,0,0,0-.493-1.592,3.3,3.3,0,0,0-2.308-.788c-.107,0-.222,0-.338,0Zm38.03,11.492a6.01,6.01,0,0,0-1.671,1.528,10.25,10.25,0,0,1,1.552,1.767,13.629,13.629,0,0,1,1.417,1.838,6.178,6.178,0,0,1,.8,3.1,19.764,19.764,0,0,1-.676,4.727,10.262,10.262,0,0,1-1.759,3.526,10.415,10.415,0,0,0,1.385.215,37.775,37.775,0,0,0,1.249-4.855,20.483,20.483,0,0,0,.119-6.08,10.109,10.109,0,0,0-.764-3.279A12.631,12.631,0,0,0,46.264,31.456Z" transform="translate(-2.128 -9.692)" stroke="#000" stroke-width="0.011"/>
</svg>
