<svg xmlns="http://www.w3.org/2000/svg" width="34.71" height="60" viewBox="0 0 34.71 60">
  <path id="soy" d="M56.412,59.954l-2.027-9.582a2.578,2.578,0,0,1,.246-1.658c3.686-6.388.737-12.469-.369-14.374a5.248,5.248,0,0,1-.553-1.474V32.8a3.592,3.592,0,0,1,.43-2.518c2.764-4.484,1.106-9.275.184-11.179a4.368,4.368,0,0,1-.43-1.966v-.307a5.814,5.814,0,0,1,.491-2.273C56.9,9.339,54.631,3.626,53.648,1.6a.845.845,0,0,0-1.167-.369c-8.907,4.545-6.265,12.162-5.037,14.742a2.567,2.567,0,0,1,.123,1.9v.061a1.921,1.921,0,0,1-.307.614c-3.747,4.73-.8,10.934.369,13.022a3.989,3.989,0,0,1,.491,1.658h0a3.58,3.58,0,0,1-.369,1.781c-3.44,7.187,3.071,15.356,3.071,15.356a25.43,25.43,0,0,1,2.948,7l-4.484-4.423a1.973,1.973,0,0,1-.614-1.351A12.718,12.718,0,0,0,41.24,41.035a3.646,3.646,0,0,1-1.106-.8h0a3.128,3.128,0,0,1-.921-2.15c-.123-4.73-3.808-7.494-5.405-8.477a4.109,4.109,0,0,1-1.29-1.229l-.307-.307a5.034,5.034,0,0,1-.737-1.966c-.676-4.975-4.914-8.047-6.818-9.214a1.06,1.06,0,0,0-1.474.43C19.066,25,24.717,29.3,26.867,30.654a2.546,2.546,0,0,1,1.044,1.351v.061a2.09,2.09,0,0,1,.061.614c-.43,5.405,4.853,8.6,6.757,9.582A3.19,3.19,0,0,1,35.9,43.307a3.441,3.441,0,0,1,.614,1.474c.983,7.064,9.951,9.951,9.951,9.951a21.776,21.776,0,0,1,5.651,3.747c.921.86,1.843,1.658,2.764,2.457h0a.832.832,0,0,0,1.044,0l.123-.061a.712.712,0,0,0,.246-.614A.338.338,0,0,0,56.412,59.954Z" transform="translate(-21.718 -1.121)"/>
</svg>
